<svg width="61" height="57" viewBox="0 0 61 57" fill="none" xmlns="http://www.w3.org/2000/svg">
<rect width="61" height="57" fill="white"/>
<path d="M47 44.5319L16.4906 49C15.2172 50.137 14.0786 43.7549 12.6168 31.1383C11.2327 23.1389 8.92355 16.9139 4.5 12.5L35.9057 7C43.2687 19.8647 41.5 29 47 44.5319Z" stroke="black"/>
<path d="M35.2178 6.69953C36.0767 6.30297 34.3639 3.20341 33.5 3.13056L2.44874 8.4827M47.1411 44.6379C47.1411 44.6379 48 46.2241 48 47.0172C48 47.8103 47.5705 49 47.5705 49M2.44874 8.4827L2.04831 8.55171C1.65751 10.9033 3.76613 12.1207 3.76613 12.1207C3.76613 12.1207 4.04425 9.48909 2.44874 8.4827Z" stroke="black"/>
<path d="M16.7364 49C15.0265 50.5867 15.1365 51.4962 16.7364 53.1739L47.2364 48.8261" stroke="black"/>
<path d="M12 16L35 13" stroke="black"/>
<path d="M18 32L41 28" stroke="black"/>
<path d="M17 24L38 20" stroke="#43EAF4"/>
<path d="M6.38206 9.79236L33.299 4.9378" stroke="#43EAF4"/>
<path d="M18.108 50.3708L46 47" stroke="#43EAF4"/>
<path d="M20 40L43 36" stroke="#43EAF4"/>
<path d="M16 49C17.8577 50.6199 17.7983 51.493 16 53" stroke="black"/>
<path d="M34 20L35.2857 15.5862L45.5714 6.75862L48.7857 4L52 7.31034L48.7857 10.069L39.1429 18.3448L34 20Z" fill="#35F3FF"/>
<path d="M35.2857 15.5862L34 20L39.1429 18.3448M35.2857 15.5862L37.2143 17.2414L39.1429 18.3448M35.2857 15.5862L45.5714 6.75862M39.1429 18.3448L48.7857 10.069M45.5714 6.75862L48.7857 4L52 7.31034L48.7857 10.069M45.5714 6.75862L48.7857 10.069" stroke="black"/>
<path d="M52 9L42 18" stroke="#DADADA" stroke-width="2"/>
<path d="M13 18.5L33.5 15.5" stroke="#DADADA" stroke-width="2"/>
<path d="M19.5 34.5L40.5 30.5" stroke="#DADADA" stroke-width="2"/>
<path d="M17 27L39 23" stroke="#DADADA" stroke-width="2"/>
<path d="M21 42L43 38" stroke="#DADADA" stroke-width="2"/>
<path d="M3.5 12L3 38" stroke="black"/>
<path d="M4 12.5L6 32.5" stroke="black"/>
<circle cx="3.5" cy="38.5" r="1.5" fill="#ED0E0E"/>
<circle cx="3.5" cy="38.5" r="1.5" fill="#ED0E0E"/>
<circle cx="3.5" cy="38.5" r="1.5" fill="#ED0E0E"/>
<path d="M5 33.5C5 34.3284 5.67157 35 6.5 35C7.32843 35 8 34.3284 8 33.5C8 32.6716 7.32843 32 6.5 32C5.67157 32 5 32.6716 5 33.5Z" fill="#ED0E0E"/>
<path d="M5 33.5C5 34.3284 5.67157 35 6.5 35C7.32843 35 8 34.3284 8 33.5C8 32.6716 7.32843 32 6.5 32C5.67157 32 5 32.6716 5 33.5Z" fill="#ED0E0E"/>
<path d="M5 33.5C5 34.3284 5.67157 35 6.5 35C7.32843 35 8 34.3284 8 33.5C8 32.6716 7.32843 32 6.5 32C5.67157 32 5 32.6716 5 33.5Z" fill="#ED0E0E"/>
</svg>
