<svg width="60" height="53" viewBox="0 0 60 53" fill="none" xmlns="http://www.w3.org/2000/svg">
<rect width="60" height="53" fill="white"/>
<path d="M3 51L14.5636 23H56L46.1274 51H3Z" stroke="black"/>
<path d="M15.4667 28L8 47H21.8667L24 40.92" stroke="#71DDF4"/>
<path d="M13 42.6552L19.1667 26H50L45.8889 38.3103M17.1111 42.6552L21.2222 30.3448H44.8611L40.2361 47H24.3056L27.9028 34.6897H38.6944" stroke="#71DDF4"/>
<path d="M29 44H39" stroke="#71DDF4"/>
<path d="M31 38H37" stroke="#71DDF4"/>
<path d="M31.0379 33L37.9801 14.6923C38.2938 6.90885 34.8537 5 31.0379 5C27.222 5 24.4944 8.27754 25.079 14.6923L31.0379 33Z" fill="#E20808" stroke="black"/>
<path d="M34.5 12.5C34.5 14.8334 33.0472 16.5 31.5 16.5C29.9528 16.5 28.5 14.8334 28.5 12.5C28.5 10.1666 29.9528 8.5 31.5 8.5C33.0472 8.5 34.5 10.1666 34.5 12.5Z" fill="#FFFCFC" stroke="black"/>
<path d="M3 52.5H47L57.5 23.5" stroke="#BFBEBE"/>
<path d="M25.5 20.5L23 14.5C23.0761 6.6145 24.8352 3.98987 31.5 3C37.9288 3.7469 39.1684 6.84493 39.5 14.5L37.5 20.5" stroke="#BFBEBE"/>
<path d="M26.5 24.5H15.5L5 49.5H45" stroke="#BFBEBE"/>
<path d="M35 28.5H47.5L43.5 42.5" stroke="#BFBEBE"/>
<path d="M19.5 45L23 33.5H27.5" stroke="#BFBEBE"/>
</svg>
