<svg width="62" height="59" viewBox="0 0 62 59" fill="none" xmlns="http://www.w3.org/2000/svg">
<rect width="62" height="59" fill="white"/>
<path d="M38.2724 45.9626C38.2724 45.9626 49.8762 33.3155 46.324 19.7487C42.7718 6.18192 18.6169 7.33165 15.5383 19.7487C12.4598 32.1658 23.59 45.9625 23.59 45.9625M38.2724 45.9626L31.168 45.9625M38.2724 45.9626L39.2196 47.8021L38.3908 49.4117L39.6932 51.2513L38.3908 53.0909L39.9301 55.1604L38.2724 57H23.59L22.1691 54.9304L23.59 53.3209L22.6427 51.4812L23.59 49.6417L22.8795 47.8021L23.59 45.9625M23.59 45.9625L31.168 45.9625M31.168 45.9625L38.2724 32.1658L36.6147 30.5562L35.1938 31.9358L34.0097 30.5562L32.5889 31.9358L31.168 30.5562L29.9839 31.9358L28.3262 30.3262L26.6685 31.9358L25.2477 30.3262L24.0636 32.1658L31.0496 45.7326L31.168 45.9625Z" stroke="black"/>
<path d="M6 33L13 34" stroke="#51D5FF"/>
<path d="M4 27L12 28" stroke="#51D5FF"/>
<path d="M3 21L12 23" stroke="#51D5FF"/>
<path d="M6 14L12 18" stroke="#51D5FF"/>
<path d="M9 8L15 14" stroke="#51D5FF"/>
<path d="M57 31L50 32" stroke="#51D5FF"/>
<path d="M58 26L50 28" stroke="#51D5FF"/>
<path d="M57.962 21.6647L50.1429 22.8965" stroke="#51D5FF"/>
<path d="M57 16L50 19" stroke="#51D5FF"/>
<path d="M53 10L47 15" stroke="#51D5FF"/>
<path d="M15 5L19 11" stroke="#51D5FF"/>
<path d="M20.6512 1.87547L22.6702 9.33766" stroke="#51D5FF"/>
<path d="M25.5 0.5L27 7" stroke="#51D5FF"/>
<path d="M49 5L43 11" stroke="#51D5FF"/>
<path d="M42.9866 2.10234L39.6205 9.11077" stroke="#51D5FF"/>
<path d="M37 1L35 7" stroke="#51D5FF"/>
<path d="M31 0L31 7" stroke="#51D5FF"/>
<path d="M25 49H37" stroke="#51D5FF"/>
<path d="M25.5 55H37" stroke="#51D5FF"/>
</svg>
